#N canvas 622 116 645 583 10;
#N canvas 0 22 450 300 (subpatch) 0;
#X array knit 200 float 0;
#X coords 0 1 199 0 200 150 1 0 0;
#X restore 324 -2914 graph;
#N canvas 73 177 1153 478 (subpatch) 0;
#X array spectrum 200 float 3;
#A 0 0 0 0 0 0 0 0 0 0 0 0 0 0 0 0 0 0 0 0 0 0 0 0 0 0 0 0 0
0 0 0 0 0 0 0 0 0 0 0 0 0 0 0 0 0 0 0 0 0 0 0 0 0 0 0 0 0 0 0 0 0 0
0 0 0 0 0 0 0 0 0 0 0 0 0 0 0 0 0 0 0 0 0 0 0 0 0 0 0 0 0 0 0 0 0 0
0 0 0 0 0 0 0 0 0 0 0 0 0 0 0 0 0 0 0 0 0 0 0 0 0 0 0 0 0 0 0 0 0 0
0 0 0 0 0 0 0 0 0 0 0 0 0 0 0 0 0 0 0 0 0 0 0 0 0 0 0 0 0 0 0 0 0 0
0 0 0 0 0 0 0 0 0 0 0 0 0 0 0 0 0 0 0 0 0 0 0 0 0 0 0 0 0 0 0 0 0 0
0 0;
#X coords 0 100 200 0 200 150 1 0 0;
#X restore 99 -2914 graph;
#X obj -58 -2991 sel 64;
#N canvas 959 311 178 213 bip 0;
#X obj 24 16 inlet;
#X obj 24 133 osc~;
#X msg 24 95 0;
#X msg 87 95 800;
#X obj 24 65 delay 100;
#X obj 24 159 throw~ out;
#X obj 24 39 trigger b b;
#X connect 0 0 6 0;
#X connect 1 0 5 0;
#X connect 2 0 1 0;
#X connect 3 0 1 0;
#X connect 4 0 2 0;
#X connect 6 0 4 0;
#X connect 6 1 3 0;
#X restore 41 -2944 pd bip;
#X obj 304 -2912 vsl 15 149 0 200 0 1 empty empty empty 0 -9 0 10 -257985
-1 -1 1000 1;
#X obj -58 -2968 trigger bang bang;
#N canvas 666 431 151 205 bip 0;
#X obj 34 26 inlet;
#X obj 34 143 osc~;
#X msg 34 105 0;
#X obj 34 75 delay 100;
#X obj 34 169 throw~ out;
#X obj 34 49 trigger b b;
#X msg 97 105 440;
#X connect 0 0 5 0;
#X connect 1 0 4 0;
#X connect 2 0 1 0;
#X connect 3 0 2 0;
#X connect 5 0 3 0;
#X connect 5 1 6 0;
#X connect 6 0 1 0;
#X restore -45 -2919 pd bip;
#X obj -58 -2944 delay 1200;
#N canvas 995 301 336 378 stitch_selector 0;
#X obj -4 86 until;
#X obj -4 124 f;
#X obj 28 124 + 1;
#X msg 101 86 0;
#X msg -4 39 200;
#X obj -4 201 i;
#X obj -4 224 >= 40;
#X obj -4 178 tabread spectrum;
#X obj -4 5 inlet;
#X obj -4 62 trigger float bang;
#X obj 84 5 r SEUIL;
#X obj 236 206 f;
#X obj 264 206 + 1;
#X obj 294 206 % 4;
#X obj 236 230 sel 0;
#X msg 236 255 1;
#X msg 266 255 0;
#X obj -4 154 trigger float float float;
#X obj 143 303 pack float float;
#X obj 143 178 trigger float b;
#X obj -4 247 sel 1;
#X msg -4 336 \; knit \$1 1;
#X msg 143 336 \; knit \$1 \$2;
#X obj -4 293 float;
#X connect 0 0 1 0;
#X connect 1 0 2 0;
#X connect 1 0 17 0;
#X connect 2 0 1 1;
#X connect 3 0 1 1;
#X connect 4 0 9 0;
#X connect 5 0 6 0;
#X connect 6 0 20 0;
#X connect 7 0 5 0;
#X connect 8 0 4 0;
#X connect 9 0 0 0;
#X connect 9 1 3 0;
#X connect 10 0 6 1;
#X connect 11 0 12 0;
#X connect 11 0 14 0;
#X connect 12 0 13 0;
#X connect 13 0 11 1;
#X connect 14 0 15 0;
#X connect 14 1 16 0;
#X connect 15 0 18 1;
#X connect 16 0 18 1;
#X connect 17 0 7 0;
#X connect 17 1 23 1;
#X connect 17 2 19 0;
#X connect 18 0 22 0;
#X connect 19 0 18 0;
#X connect 19 1 11 0;
#X connect 20 0 23 0;
#X connect 23 0 21 0;
#X restore -60 -2724 pd stitch_selector;
#N canvas 933 181 304 543 stitch_recorder 0;
#X obj 141 51 until;
#X obj 141 81 f;
#X obj 169 81 + 1;
#X msg 246 51 0;
#X msg 141 2 200;
#X obj 84 137 tabread knit;
#X obj 84 161 list prepend;
#X obj 35 185 list;
#X obj 84 185 trigger list;
#X obj 35 258 outlet;
#X obj 54 221 s SIMULATOR;
#X obj 59 -131 t b f;
#X msg 35 -202 0;
#X msg 63 -202 1;
#X obj 35 -226 select 0 1;
#X obj 35 -251 r CONTROL;
#X obj 141 25 trigger float bang;
#X obj 35 -105 metro 200;
#X obj 194 -36 f;
#X obj 223 -36 + 1;
#X obj 35 -80 trigger bang bang bang bang;
#X obj 35 -173 t f f;
#X obj 116 -251 r REC_FRAME_RATE;
#X obj 194 -11 s FRAME_POS;
#X connect 0 0 1 0;
#X connect 1 0 2 0;
#X connect 1 0 5 0;
#X connect 2 0 1 1;
#X connect 3 0 1 1;
#X connect 4 0 16 0;
#X connect 5 0 6 0;
#X connect 6 0 7 1;
#X connect 6 0 8 0;
#X connect 7 0 9 0;
#X connect 7 0 10 0;
#X connect 8 0 6 1;
#X connect 11 0 17 0;
#X connect 11 1 17 1;
#X connect 12 0 21 0;
#X connect 13 0 17 0;
#X connect 14 0 12 0;
#X connect 14 1 13 0;
#X connect 15 0 14 0;
#X connect 16 0 0 0;
#X connect 16 1 3 0;
#X connect 17 0 20 0;
#X connect 18 0 19 0;
#X connect 18 0 23 0;
#X connect 19 0 18 1;
#X connect 20 0 7 0;
#X connect 20 1 6 1;
#X connect 20 2 4 0;
#X connect 20 3 18 0;
#X connect 21 0 18 1;
#X connect 21 1 17 0;
#X connect 22 0 11 0;
#X restore -61 -2699 pd stitch_recorder;
#X floatatom 304 -2707 5 0 0 0 - - -;
#X obj -66 -3133 cnv 15 400 90 empty empty empty 20 12 0 14 -4034 -66577
0;
#X msg -43 -3083 close;
#X msg -58 -3124 devices;
#X msg -48 -3104 open 1;
#X obj 304 -2730 r FRAME_POS;
#X msg 179 -3126 \; pd dsp 1;
#X msg 98 -3125 rewind;
#X msg 62 -3126 stop;
#X msg 33 -3126 rec;
#X obj -58 -2895 s NEXT_ROW;
#X obj -61 -2769 dac~;
#X obj -58 -2869 adc~;
#X obj 304 -2753 s SEUIL;
#X obj -58 -3014 comport 0 38400;
#X obj -14 -2869 catch~ out;
#X obj -61 -2651 s KNITTING;
#X obj -43 -3040 r KNITTING;
#N canvas 119 490 316 206 fft 0;
#X obj 105 -6 rfft~;
#X obj 105 23 *~;
#X obj 132 23 *~;
#X obj 105 -54 inlet~;
#X obj 105 54 sqrt~;
#X obj 105 116 tabwrite~ spectrum;
#X obj 47 116 outlet~;
#X obj 16 -53 block~ 4095;
#X msg 172 0 0;
#X msg 200 0 1;
#X obj 172 -30 select 0 1;
#X obj 172 -54 r CONTROL;
#X obj 172 36 metro 200;
#X obj 172 95 s SPECTRUM_FRAME_RATE;
#X obj 172 60 t b b;
#X connect 0 0 1 0;
#X connect 0 0 1 1;
#X connect 0 1 2 0;
#X connect 0 1 2 1;
#X connect 1 0 4 0;
#X connect 2 0 4 0;
#X connect 3 0 0 0;
#X connect 3 0 6 0;
#X connect 4 0 5 0;
#X connect 8 0 12 0;
#X connect 9 0 12 0;
#X connect 10 0 8 0;
#X connect 10 1 9 0;
#X connect 11 0 10 0;
#X connect 12 0 14 0;
#X connect 14 0 13 0;
#X connect 14 1 5 0;
#X restore -60 -2798 pd fft;
#N canvas 157 142 215 188 controls 0;
#X obj -10 18 inlet;
#X msg 81 93 2;
#X msg -10 93 0;
#X msg 35 93 1;
#X msg 127 93 3;
#X obj -10 147 s CONTROL;
#X obj -10 51 route stop rec rewind play_mode;
#X connect 0 0 6 0;
#X connect 1 0 5 0;
#X connect 2 0 5 0;
#X connect 3 0 5 0;
#X connect 4 0 5 0;
#X connect 6 0 2 0;
#X connect 6 1 3 0;
#X connect 6 2 1 0;
#X connect 6 3 4 0;
#X restore 33 -3076 pd controls;
#X obj -60 -2747 r SPECTRUM_FRAME_RATE;
#N canvas 877 338 352 400 stitch_player 0;
#X obj 24 270 qlist;
#X msg 169 147 rewind;
#X msg 250 201 next;
#X msg 129 96 clear;
#X msg 189 174 read ./pattern_00.txt;
#X obj 24 16 inlet;
#X obj 24 114 list append 1 2;
#X msg 24 90 add;
#X obj 24 64 t b a;
#X obj 24 137 list trim;
#X obj 24 351 outlet;
#X msg 24 322 255;
#X obj 24 295 trigger b a;
#X msg 149 120 write ./pattern_00.txt;
#X obj 250 16 r NEXT_ROW;
#X obj 129 64 select 1 0 2 3;
#X obj 129 16 r CONTROL;
#X connect 0 0 12 0;
#X connect 1 0 0 0;
#X connect 2 0 0 0;
#X connect 3 0 0 0;
#X connect 4 0 0 0;
#X connect 5 0 8 0;
#X connect 6 0 9 0;
#X connect 7 0 6 0;
#X connect 8 0 7 0;
#X connect 8 1 6 1;
#X connect 9 0 0 0;
#X connect 11 0 10 0;
#X connect 12 0 11 0;
#X connect 12 1 10 0;
#X connect 13 0 0 0;
#X connect 14 0 2 0;
#X connect 15 0 3 0;
#X connect 15 1 13 0;
#X connect 15 2 1 0;
#X connect 15 3 4 0;
#X connect 16 0 15 0;
#X restore -61 -2675 pd stitch_player;
#N canvas 885 387 357 334 stitch_simulator 0;
#X obj 36 -293 gemhead;
#X msg 63 -137 GREY;
#X obj 123 -293 r SIMULATOR;
#X msg 89 -61 quality 0;
#X obj 36 -23 pix_texture;
#X obj 123 -136 list append;
#X obj 291 -168 t l;
#X obj 204 -168 list prepend;
#X obj 123 -192 trigger bang a;
#X obj 63 -240 loadbang;
#X obj 36 4 square 4;
#X obj 273 -268 % 200;
#X obj 273 -246 == 199;
#X obj 273 -224 sel 1;
#X obj 273 -293 r FRAME_POS;
#X obj 195 -268 sel 2;
#X obj 36 -100 pix_set 200 200;
#X obj 195 -293 r CONTROL;
#X connect 0 0 16 0;
#X connect 1 0 16 0;
#X connect 2 0 8 0;
#X connect 3 0 4 0;
#X connect 4 0 10 0;
#X connect 5 0 16 1;
#X connect 6 0 7 1;
#X connect 7 0 6 0;
#X connect 7 0 5 1;
#X connect 8 0 5 0;
#X connect 8 1 7 0;
#X connect 9 0 3 0;
#X connect 9 0 1 0;
#X connect 11 0 12 0;
#X connect 12 0 13 0;
#X connect 13 0 7 1;
#X connect 14 0 11 0;
#X connect 15 0 7 1;
#X connect 16 0 4 0;
#X connect 17 0 15 0;
#X restore -61 -2626 pd stitch_simulator;
#N canvas 716 433 338 221 gemwin 0;
#X obj 27 188 outlet;
#X obj 27 12 inlet;
#X obj 27 38 route create;
#X msg 27 140 set destroy;
#X msg 48 116 set create;
#X msg 163 86 destroy \, reset;
#X msg 173 142 dimen 400 400;
#X msg 142 114 create \, 1 \, color 0.5 0.5 0.5;
#X obj 142 188 gemwin;
#X connect 1 0 2 0;
#X connect 2 0 3 0;
#X connect 2 0 7 0;
#X connect 2 1 4 0;
#X connect 2 1 5 0;
#X connect 3 0 0 0;
#X connect 4 0 0 0;
#X connect 5 0 8 0;
#X connect 6 0 8 0;
#X connect 7 0 8 0;
#X restore 270 -3107 pd gemwin;
#X msg 270 -3127 destroy;
#X obj -59 -2844 +~;
#X obj -60 -2821 +~;
#X msg 108 -3102 play_mode;
#X msg 187 -3026 \; REC_FRAME_RATE \$1;
#X floatatom 187 -3072 5 0 0 0 - - -;
#X connect 2 0 5 0;
#X connect 4 0 23 0;
#X connect 5 0 7 0;
#X connect 5 1 3 0;
#X connect 7 0 20 0;
#X connect 7 0 6 0;
#X connect 9 0 31 0;
#X connect 12 0 24 0;
#X connect 13 0 24 0;
#X connect 14 0 24 0;
#X connect 15 0 10 0;
#X connect 17 0 29 0;
#X connect 18 0 29 0;
#X connect 19 0 29 0;
#X connect 22 0 35 0;
#X connect 22 1 35 1;
#X connect 24 0 2 0;
#X connect 25 0 36 1;
#X connect 27 0 24 0;
#X connect 28 0 21 0;
#X connect 28 0 21 1;
#X connect 30 0 8 0;
#X connect 31 0 26 0;
#X connect 33 0 34 0;
#X connect 34 0 33 0;
#X connect 35 0 36 0;
#X connect 36 0 28 0;
#X connect 37 0 29 0;
#X connect 39 0 38 0;
