#N canvas 470 22 598 572 10;
#X obj -81 -524 r OUT;
#N canvas 0 22 450 300 (subpatch) 0;
#X array knit 200 float 0;
#X coords 0 1 199 0 200 150 1 0 0;
#X restore 244 -335 graph;
#N canvas 703 163 357 223 fft 0;
#X obj 70 66 rfft~;
#X obj 70 95 *~;
#X obj 97 95 *~;
#X obj 70 18 inlet~;
#X obj 70 126 sqrt~;
#X obj -19 19 block~ 4095;
#X obj 70 166 tabwrite~ spectrum;
#X obj 12 166 outlet~;
#X obj 131 18 r FRAME_RATE;
#X obj 187 166 outlet;
#X obj 131 48 t b b b;
#X obj 232 111 f;
#X obj 261 111 + 1;
#X obj 232 166 s FRAME;
#X obj 247 18 r START_STOP;
#X msg 247 86 0;
#X obj 247 63 sel 1;
#X connect 0 0 1 0;
#X connect 0 0 1 1;
#X connect 0 1 2 0;
#X connect 0 1 2 1;
#X connect 1 0 4 0;
#X connect 2 0 4 0;
#X connect 3 0 0 0;
#X connect 3 0 7 0;
#X connect 4 0 6 0;
#X connect 8 0 10 0;
#X connect 10 0 9 0;
#X connect 10 1 6 0;
#X connect 10 2 11 0;
#X connect 11 0 12 0;
#X connect 11 0 13 0;
#X connect 12 0 11 1;
#X connect 14 0 16 0;
#X connect 15 0 11 1;
#X connect 16 0 15 0;
#X restore -139 -232 pd fft;
#N canvas 73 177 1153 478 (subpatch) 0;
#X array spectrum 200 float 3;
#A 0 0.180878 0.344423 0.250351 0.156331 0.207983 0.13502 0.242097
0.274092 0.0865282 0.244383 0.14116 0.0350966 0.0148635 0.0468673 0.0197103
0.0425971 0.0203524 0.0331236 0.00802799 0.00786151 0.0478405 0.0351561
0.0313328 0.0171096 0.0195888 0.0300472 0.0269053 0.0113236 0.0102479
0.00863119 0.0188833 0.00862939 0.0216049 0.0236865 0.0108812 0.0193586
0.0351265 0.0104723 0.010613 0.00284128 0.00485996 0.0139258 0.00693094
0.0133313 0.0157553 0.0161747 0.0283882 0.0134675 0.00461796 0.0113496
0.0112006 0.0117007 0.0135078 0.0171829 0.0057632 0.0071634 0.0123249
0.0166656 0.00402775 0.00942156 0.00749225 0.0138523 0.00405374 0.0180983
0.0135934 0.0129448 0.0139934 0.00663049 0.0101433 0.00742945 0.00446445
0.00347484 0.00150791 0.00320807 0.00874103 0.00696014 0.00559147 0.00937969
0.000744944 0.00246679 0.0025928 0.00961536 0.00763122 0.00457686 0.00327759
0.00704843 0.00562979 0.00173406 0.00496506 0.00380367 0.00306367 0.00415362
0.0100796 0.000792722 0.00212967 0.00433522 0.00244177 0.000270064
0.00358792 0.0105456 0.00395621 0.00517614 0.00520766 0.0033274 0.0032899
0.00843824 0.00489209 0.00489766 0.0102887 0.00777926 0.00184075 0.000923413
0.00242465 0.00249628 0.00621217 0.00655672 0.00100233 0.00395358 0.0073825
0.00720176 0.000777868 0.00956569 0.004789 0.00291757 0.00451076 0.00955537
0.00473295 0.00788252 0.00994342 0.0080024 0.00177242 0.00964286 0.00937312
0.00368848 0.00193958 0.00125258 0.00360466 0.00537919 0.00756228 0.00272147
0.00333008 0.00865717 0.00907182 0.00513953 0.00458804 0.00512882 0.00481356
0.00573457 0.0055435 0.00480274 0.00746799 0.00186218 0.00445545 0.00302489
0.00208167 0.00285311 0.00274046 0.00567147 0.00596462 0.0134174 0.006501
0.0051254 0.00332677 0.00396601 0.00513567 0.00573647 0.00645948 0.00314432
0.00494623 0.00554465 0.00770755 0.00295281 0.00257411 0.00832209 0.0171299
0.00459637 0.00807009 0.00235148 0.00395565 0.00310661 0.00398933 0.00571525
0.00904192 0.00894134 0.000266325 0.0025236 0.00677476 0.00534452 0.0019967
0.00518966 0.00582556 0.00335288 0.00747082 0.00626059 0.0049529 0.00258682
0.00497615 0.00215092 0.00631315 0.00341469;
#X coords 0 100 200 0 200 150 1 0 0;
#X restore 19 -335 graph;
#X obj 224 -174 s seuil;
#X obj -139 -451 sel 64;
#N canvas 578 287 109 204 bip 0;
#X obj 28 28 inlet;
#X obj 28 147 osc~;
#X obj 28 177 dac~;
#X obj 28 51 t b b;
#X msg 28 109 0;
#X msg 60 110 800;
#X obj 28 79 delay 100;
#X connect 0 0 3 0;
#X connect 1 0 2 0;
#X connect 1 0 2 1;
#X connect 3 0 6 0;
#X connect 3 1 5 0;
#X connect 4 0 1 0;
#X connect 5 0 1 0;
#X connect 6 0 4 0;
#X restore -40 -404 pd bip;
#X obj -139 -191 dac~;
#X obj 224 -333 vsl 15 149 0 200 0 0 empty empty empty 0 -9 0 10 -257985
-1 -1 0 1;
#X obj -139 -428 trigger bang bang;
#N canvas 578 287 109 204 bip 0;
#X obj 28 17 inlet;
#X obj 28 136 osc~;
#X obj 28 166 dac~;
#X obj 28 40 t b b;
#X msg 28 98 0;
#X obj 28 68 delay 100;
#X msg 60 99 400;
#X connect 0 0 3 0;
#X connect 1 0 2 0;
#X connect 1 0 2 1;
#X connect 3 0 5 0;
#X connect 3 1 6 0;
#X connect 4 0 1 0;
#X connect 5 0 4 0;
#X connect 6 0 1 0;
#X restore -125 -377 pd bip;
#X obj -139 -404 delay 1200;
#N canvas 144 22 340 249 player 0;
#X obj -54 -8 inlet;
#X obj -54 201 outlet~;
#X obj -54 128 readsf~;
#X obj -54 61 openpanel;
#X obj -15 175 s START_STOP;
#X msg -15 151 0;
#X msg -54 84 open \$1;
#X obj 25 114 s START_STOP;
#X obj -54 38 bang;
#X obj -54 15 route load_sound play_sound;
#X msg 25 84 1;
#X obj 211 -8 loadbang;
#X msg 211 15 \; pd dsp 1;
#X obj 131 -8 r START_STOP;
#X obj 131 114 metro 100;
#X obj 131 137 s FRAME_RATE;
#X connect 0 0 9 0;
#X connect 2 0 1 0;
#X connect 2 1 5 0;
#X connect 3 0 6 0;
#X connect 5 0 4 0;
#X connect 6 0 2 0;
#X connect 8 0 3 0;
#X connect 9 0 8 0;
#X connect 9 1 10 0;
#X connect 10 0 7 0;
#X connect 10 0 2 0;
#X connect 11 0 12 0;
#X connect 13 0 14 0;
#X connect 14 0 15 0;
#X restore -139 -255 pd player;
#N canvas 104 114 234 439 stitch_selector 0;
#X obj 40 99 until;
#X obj 40 137 f;
#X obj 72 137 + 1;
#X msg 145 99 0;
#X msg 40 52 200;
#X obj 40 265 sel 1;
#X obj 40 215 i;
#X obj 40 241 >= 40;
#X obj 144 18 r seuil;
#X obj 40 191 tabread spectrum;
#X obj 40 18 inlet;
#X obj 40 167 trigger float float;
#X obj 40 290 pack 0 float;
#X obj 40 314 route 0;
#X msg 40 339 \; knit \$1 1;
#X obj 40 75 trigger float bang;
#X connect 0 0 1 0;
#X connect 1 0 2 0;
#X connect 1 0 11 0;
#X connect 2 0 1 1;
#X connect 3 0 1 1;
#X connect 4 0 15 0;
#X connect 5 0 12 0;
#X connect 6 0 7 0;
#X connect 7 0 5 0;
#X connect 8 0 7 1;
#X connect 9 0 6 0;
#X connect 10 0 4 0;
#X connect 11 0 9 0;
#X connect 11 1 12 1;
#X connect 12 0 13 0;
#X connect 13 0 14 0;
#X connect 15 0 0 0;
#X connect 15 1 3 0;
#X restore -106 -191 pd stitch_selector;
#X obj -139 -159 r FRAME_RATE;
#N canvas 341 147 302 407 stitch_recorder 0;
#X obj 29 -65 until;
#X obj 29 -31 f;
#X obj 57 -31 + 1;
#X msg 92 -65 0;
#X msg 29 -112 200;
#X obj 29 -89 trigger f b;
#X obj 179 11 tabread knit;
#X obj 179 35 list prepend;
#X obj 158 67 list;
#X obj 29 -135 trigger bang bang bang;
#X obj 194 67 trigger list;
#X obj 29 -6 trigger float float;
#X msg 29 177 \; knit \$1 \$2;
#X obj 29 154 pack f f;
#X obj 29 39 t f b;
#X obj 74 67 f;
#X obj 102 67 + 1;
#X obj 29 -169 inlet;
#X obj 158 190 outlet;
#X obj 132 67 % 4;
#X obj 74 91 sel 0;
#X msg 74 116 1;
#X msg 104 116 0;
#X obj 177 104 s SIMULATOR;
#X connect 0 0 1 0;
#X connect 1 0 2 0;
#X connect 1 0 11 0;
#X connect 2 0 1 1;
#X connect 3 0 1 1;
#X connect 4 0 5 0;
#X connect 5 0 0 0;
#X connect 5 1 3 0;
#X connect 6 0 7 0;
#X connect 7 0 8 1;
#X connect 7 0 10 0;
#X connect 8 0 18 0;
#X connect 8 0 23 0;
#X connect 9 0 4 0;
#X connect 9 1 7 1;
#X connect 9 2 8 0;
#X connect 10 0 7 1;
#X connect 11 0 14 0;
#X connect 11 1 6 0;
#X connect 13 0 12 0;
#X connect 14 0 13 0;
#X connect 14 1 15 0;
#X connect 15 0 16 0;
#X connect 15 0 20 0;
#X connect 16 0 19 0;
#X connect 17 0 9 0;
#X connect 19 0 15 1;
#X connect 20 0 21 0;
#X connect 20 1 22 0;
#X connect 21 0 13 1;
#X connect 22 0 13 1;
#X restore -139 -136 pd stitch_recorder;
#X obj -139 -87 s OUT;
#N canvas 571 106 576 479 stitch_play 0;
#X obj 25 310 qlist;
#X msg 248 146 rewind;
#X msg 271 243 next;
#X text 297 144 go to beginning (and stop);
#X text 307 242 single-step forward;
#X text 449 113 read a file;
#X text 374 86 write one;
#X msg 130 146 clear;
#X msg 229 86 write ./pattern_00.txt;
#X msg 312 115 read ./pattern_00.txt;
#X obj 25 -34 inlet;
#X obj 25 44 list append 1 2;
#X msg 25 20 add;
#X obj 25 -6 t b a;
#X obj 25 67 list trim;
#X obj 25 391 outlet;
#X obj 130 -6 sel 1 0;
#X obj 130 43 trigger bang bang;
#X obj 248 43 trigger bang bang bang;
#X msg 377 66 write ./pattern_00.txt;
#X obj 130 -34 r START_STOP;
#X obj 271 208 r next_row;
#X msg 25 362 255;
#X obj 25 335 trigger b a;
#X obj 352 -5 loadbang;
#X connect 0 0 23 0;
#X connect 1 0 0 0;
#X connect 2 0 0 0;
#X connect 7 0 0 0;
#X connect 8 0 0 0;
#X connect 9 0 0 0;
#X connect 10 0 13 0;
#X connect 11 0 14 0;
#X connect 12 0 11 0;
#X connect 13 0 12 0;
#X connect 13 1 11 1;
#X connect 14 0 0 0;
#X connect 16 0 17 0;
#X connect 16 1 18 0;
#X connect 17 0 7 0;
#X connect 17 1 8 0;
#X connect 18 0 1 0;
#X connect 18 1 9 0;
#X connect 18 2 19 0;
#X connect 19 0 0 0;
#X connect 20 0 16 0;
#X connect 21 0 2 0;
#X connect 22 0 15 0;
#X connect 23 0 22 0;
#X connect 23 1 15 0;
#X connect 24 0 9 0;
#X restore -139 -112 pd stitch_play;
#X obj -139 -350 s next_row;
#N canvas 606 147 328 346 graphic 0;
#X obj 19 -309 gemhead;
#X msg 46 -153 GREY;
#X obj 106 -309 r SIMULATOR;
#X obj 19 -116 pix_set 200 200;
#X msg 72 -77 quality 0;
#X obj 19 -39 pix_texture;
#X obj 106 -152 list append;
#X obj 256 -176 t l;
#X obj 169 -176 list prepend;
#X obj 106 -208 trigger bang a;
#X obj 46 -256 loadbang;
#X obj 19 -12 square 4;
#X obj 238 -309 r START_STOP;
#X obj 238 -208 sel 1;
#X obj 188 -309 r FRAME;
#X obj 188 -284 % 200;
#X obj 188 -262 == 199;
#X obj 188 -240 sel 1;
#X connect 0 0 3 0;
#X connect 1 0 3 0;
#X connect 2 0 9 0;
#X connect 3 0 5 0;
#X connect 4 0 5 0;
#X connect 5 0 11 0;
#X connect 6 0 3 1;
#X connect 7 0 8 1;
#X connect 8 0 7 0;
#X connect 8 0 6 1;
#X connect 9 0 6 0;
#X connect 9 1 8 0;
#X connect 10 0 4 0;
#X connect 10 0 1 0;
#X connect 12 0 13 0;
#X connect 13 0 8 1;
#X connect 14 0 15 0;
#X connect 15 0 16 0;
#X connect 16 0 17 0;
#X connect 17 0 8 1;
#X restore -138 -65 pd graphic;
#X obj -148 -324 cnv 15 100 60 empty empty empty 20 12 0 14 -4034 -66577
0;
#X msg -139 -315 load_sound;
#X msg -126 -292 play_sound;
#X obj 344 -593 cnv 15 100 60 empty empty empty 20 12 0 14 -4034 -66577
0;
#N canvas 300 195 450 300 gemwin 0;
#X obj 132 176 gemwin;
#X obj 67 119 outlet;
#X obj 67 10 inlet;
#X obj 67 36 route create;
#X msg 67 68 set destroy;
#X msg 152 68 set create;
#X msg 148 142 destroy \, reset;
#X msg 303 69 dimen 400 400;
#X msg 132 113 create \, 1 \, color 0.5 0.5 0.5;
#X connect 2 0 3 0;
#X connect 3 0 4 0;
#X connect 3 0 8 0;
#X connect 3 1 5 0;
#X connect 3 1 6 0;
#X connect 4 0 1 0;
#X connect 5 0 1 0;
#X connect 6 0 0 0;
#X connect 7 0 0 0;
#X connect 8 0 0 0;
#X restore 349 -555 pd gemwin;
#X msg 349 -574 destroy;
#X text 345 -595 Create window:;
#X obj 224 -154 r FRAME;
#X floatatom 224 -131 5 0 0 0 - - -;
#X obj -139 -474 comport 0 38400;
#X obj -81 -499 print LIST_PLAY;
#X obj -147 -593 cnv 15 100 65 empty empty empty 20 12 0 14 -4034 -66577
0;
#X msg -120 -568 close;
#X msg -107 -548 devices;
#X msg -139 -588 open 1;
#X connect 0 0 29 0;
#X connect 0 0 30 0;
#X connect 2 0 7 0;
#X connect 2 0 7 1;
#X connect 2 1 13 0;
#X connect 5 0 9 0;
#X connect 8 0 4 0;
#X connect 9 0 11 0;
#X connect 9 1 6 0;
#X connect 11 0 10 0;
#X connect 11 0 18 0;
#X connect 12 0 2 0;
#X connect 14 0 15 0;
#X connect 15 0 17 0;
#X connect 17 0 16 0;
#X connect 21 0 12 0;
#X connect 22 0 12 0;
#X connect 24 0 25 0;
#X connect 25 0 24 0;
#X connect 27 0 28 0;
#X connect 29 0 5 0;
#X connect 32 0 29 0;
#X connect 33 0 29 0;
#X connect 34 0 29 0;
