#N canvas 236 193 602 299 10;
#N canvas 0 22 450 300 (subpatch) 0;
#X array knit 200 float 0 black black;
#X coords 0 1 199 0 200 150 1;
#X restore 311 -17526 graph;
#X obj 286 -17523 vsl 20 145 0 50 0 1 SEUIL empty empty 0 -9 0 10 -203904
-1 -1 50 1;
#N canvas 213 110 662 565 controls 1;
#X msg 263 161 2;
#X msg 263 228 3;
#X obj 331 270 s CONTROL;
#X obj 105 141 bng 20 250 50 0 empty empty CLEAR 25 15 0 15 -258113
-1 -1;
#X obj 104 208 bng 20 250 50 0 empty empty KNIT 25 15 0 15 -232576
-1 -1;
#X floatatom 105 187 5 0 0 1 FRAME_POS FRAME_POS -, f 5;
#X floatatom 105 166 5 0 0 1 FRAME_RATE - REC_FRAME_RATE, f 5;
#N canvas 678 305 261 248 gemwin 0;
#X obj 40 -1322 inlet;
#X obj 40 -1296 select 1;
#X msg 85 -1245 0 \, destroy;
#X obj 40 -1203 gemwin;
#X msg 40 -1266 reset \, dimen 700 700 \, create \, 1;
#X connect 0 0 1 0;
#X connect 1 0 4 0;
#X connect 1 1 2 0;
#X connect 2 0 3 0;
#X connect 4 0 3 0;
#X restore 265 111 pd gemwin;
#X msg 1 110 \; pd dsp 1;
#X obj -9 82 loadbang;
#X obj 105 91 tgl 20 0 empty empty SIMULATOR 25 15 0 15 -203904 -1
-1 0 1;
#X obj 105 116 tgl 20 0 empty empty REC 25 15 0 15 -260097 -1 -1 0
1;
#X obj -106 250 sel 64;
#X obj -106 297 delay 1200;
#X msg -78 173 close;
#X msg -156 36 devices;
#X msg -106 152 open 0;
#X obj -76 201 r KNITTING;
#X obj 105 66 tgl 20 0 empty empty PORT_ON_OFF 25 15 0 15 -228856 -1
-1 0 1;
#X obj -106 86 select 1 0;
#X obj 106 16 bng 20 250 50 0 empty empty CHECK_DEVICES 25 15 0 15
-203904 -1 -1;
#X obj 105 41 nbx 3 20 -1e+37 1e+37 0 0 empty empty PORT 60 15 0 15
-162280 -1 -1 0 256 0;
#X msg -125 61 set open \$1;
#X obj 104 233 bng 20 250 50 0 empty empty NEXT_ROW 25 15 0 15 -204786
-1 -1;
#X msg 263 253 4;
#N canvas 944 480 178 213 bip 0;
#X obj 24 16 inlet;
#X obj 24 133 osc~;
#X msg 24 95 0;
#X msg 87 95 800;
#X obj 24 65 delay 100;
#X obj 24 39 trigger b b;
#X obj 23 159 outlet~;
#X connect 0 0 5 0;
#X connect 1 0 6 0;
#X connect 2 0 1 0;
#X connect 3 0 1 0;
#X connect 4 0 2 0;
#X connect 5 0 4 0;
#X connect 5 1 3 0;
#X restore -42 323 pd bip;
#N canvas 659 449 151 205 bip 0;
#X obj 34 26 inlet;
#X obj 34 143 osc~;
#X msg 34 105 0;
#X obj 34 75 delay 100;
#X obj 34 49 trigger b b;
#X msg 97 105 440;
#X obj 34 169 outlet~;
#X connect 0 0 4 0;
#X connect 1 0 6 0;
#X connect 2 0 1 0;
#X connect 3 0 2 0;
#X connect 4 0 3 0;
#X connect 4 1 5 0;
#X connect 5 0 1 0;
#X restore -106 322 pd bip;
#X msg -9 149 50;
#N canvas 284 216 407 373 stitch_selector 0;
#X obj -4 93 until;
#X obj 38 124 + 1;
#X msg 101 86 0;
#X msg -4 39 200;
#X obj -4 228 >= 40;
#X obj -4 178 tabread spectrum;
#X obj -4 5 inlet;
#X obj -4 62 trigger float bang;
#X obj 84 5 r SEUIL;
#X obj 236 206 f;
#X obj 236 230 sel 0;
#X obj -4 154 trigger float float float;
#X obj 143 290 pack float float;
#X obj -4 254 sel 1;
#X msg 143 326 \; knit \$1 \$2;
#X obj -4 283 float;
#X obj 143 178 trigger float bang;
#X obj -4 124 float;
#X obj -4 201 int;
#X msg 266 255 1;
#X msg 236 255 0;
#X msg -4 326 \; knit \$1 0;
#X obj 292 205 % 3;
#X obj 264 206 + 1;
#X msg 279 142 0;
#X msg 251 142 1;
#X obj 308 30 r BACKGROUND;
#X obj 251 7 r BACKGROUND_IO;
#X obj 251 116 select 1 0;
#X connect 0 0 17 0;
#X connect 1 0 17 1;
#X connect 2 0 17 1;
#X connect 3 0 7 0;
#X connect 4 0 13 0;
#X connect 5 0 18 0;
#X connect 6 0 3 0;
#X connect 7 0 0 0;
#X connect 7 1 2 0;
#X connect 8 0 4 1;
#X connect 9 0 10 0;
#X connect 9 0 23 0;
#X connect 10 0 20 0;
#X connect 10 1 19 0;
#X connect 11 0 5 0;
#X connect 11 1 15 1;
#X connect 11 2 16 0;
#X connect 12 0 14 0;
#X connect 13 0 15 0;
#X connect 15 0 21 0;
#X connect 16 0 12 0;
#X connect 16 1 9 0;
#X connect 17 0 1 0;
#X connect 17 0 11 0;
#X connect 18 0 4 0;
#X connect 19 0 12 1;
#X connect 20 0 12 1;
#X connect 22 0 9 1;
#X connect 23 0 22 0;
#X connect 24 0 23 1;
#X connect 25 0 23 1;
#X connect 26 0 22 1;
#X connect 27 0 28 0;
#X connect 28 0 25 0;
#X connect 28 1 24 0;
#X restore 98 426 pd stitch_selector;
#N canvas 867 253 370 414 stitch_recorder 0;
#X obj 222 -18 until;
#X obj 270 12 + 1;
#X msg 327 -20 0;
#X msg 222 -71 200;
#X obj 142 53 tabread knit;
#X obj 142 77 list prepend;
#X obj 93 101 list;
#X obj 142 101 trigger list;
#X obj 93 153 outlet;
#X msg 12 -156 0;
#X msg 40 -156 1;
#X obj 12 -226 r CONTROL;
#X obj 222 -48 trigger float bang;
#X obj 93 -123 metro 200;
#X obj 93 -226 r REC_FRAME_RATE;
#X obj 93 -151 delay 1000;
#X obj 93 -180 trigger bang float;
#X obj 12 -180 select 0 1;
#X obj 222 12 float;
#X obj 93 -95 trigger bang bang bang;
#X connect 0 0 18 0;
#X connect 1 0 18 1;
#X connect 2 0 18 1;
#X connect 3 0 12 0;
#X connect 4 0 5 0;
#X connect 5 0 6 1;
#X connect 5 0 7 0;
#X connect 6 0 8 0;
#X connect 7 0 5 1;
#X connect 9 0 13 0;
#X connect 10 0 13 0;
#X connect 11 0 17 0;
#X connect 12 0 0 0;
#X connect 12 1 2 0;
#X connect 13 0 19 0;
#X connect 14 0 16 0;
#X connect 15 0 13 0;
#X connect 16 0 15 0;
#X connect 16 1 13 1;
#X connect 17 0 9 0;
#X connect 17 1 10 0;
#X connect 18 0 1 0;
#X connect 18 0 4 0;
#X connect 19 0 6 0;
#X connect 19 1 5 1;
#X connect 19 2 3 0;
#X restore 97 451 pd stitch_recorder;
#X obj 97 499 s KNITTING;
#X obj 98 403 r SPECTRUM_FRAME_RATE;
#N canvas 758 107 474 445 stitch_player 0;
#X obj 20 312 qlist;
#X msg 305 84 next;
#X obj 20 -11 inlet;
#X obj 20 121 list trim;
#X obj 20 403 outlet;
#X obj 232 -11 r CONTROL;
#X obj 96 403 s SIMULATOR;
#X obj 272 361 + 1;
#X obj 232 403 s FRAME_POS;
#X obj 232 361 float;
#X msg 254 331 0;
#X obj 20 36 trigger bang anything bang;
#X obj 20 98 list append 1 2;
#X msg 20 75 add 255;
#X obj 35 344 route 255;
#X obj 278 61 t b b;
#X msg 255 190 rewind;
#X msg 320 287 clear;
#X obj 232 36 select 2 3 4;
#X obj 343 264 s CLEAR_SIMULATOR;
#X obj 313 147 s CLEAR_SIMULATOR;
#X msg 284 168 write pattern.txt;
#X obj 326 -11 loadbang;
#X msg 326 16 read pattern.txt;
#X msg 276 308 write pattern.txt;
#X msg 298 266 add 0;
#X obj 232 239 trigger b b b b b b;
#X obj 255 123 trigger b b b b;
#X obj 116 374 print KNIT;
#X connect 0 0 4 0;
#X connect 0 0 14 0;
#X connect 1 0 0 0;
#X connect 2 0 11 0;
#X connect 3 0 0 0;
#X connect 5 0 18 0;
#X connect 7 0 9 1;
#X connect 9 0 7 0;
#X connect 9 0 8 0;
#X connect 10 0 9 1;
#X connect 11 0 13 0;
#X connect 11 1 6 0;
#X connect 11 1 12 1;
#X connect 11 2 9 0;
#X connect 12 0 3 0;
#X connect 13 0 12 0;
#X connect 14 0 6 0;
#X connect 14 0 28 0;
#X connect 15 0 9 0;
#X connect 15 1 1 0;
#X connect 16 0 0 0;
#X connect 17 0 0 0;
#X connect 18 0 26 0;
#X connect 18 1 27 0;
#X connect 18 2 15 0;
#X connect 21 0 0 0;
#X connect 22 0 23 0;
#X connect 23 0 0 0;
#X connect 24 0 0 0;
#X connect 25 0 0 0;
#X connect 26 0 9 0;
#X connect 26 1 10 0;
#X connect 26 2 24 0;
#X connect 26 3 25 0;
#X connect 26 4 17 0;
#X connect 26 5 19 0;
#X connect 27 0 16 0;
#X connect 27 1 21 0;
#X connect 27 2 20 0;
#X connect 27 3 10 0;
#X restore 97 475 pd stitch_player;
#N canvas 299 175 410 352 stitch_simulator 0;
#X obj 36 -293 gemhead;
#X msg 78 -106 GREY;
#X obj 123 -293 r SIMULATOR;
#X msg 60 -37 quality 0;
#X obj 36 -3 pix_texture;
#X obj 123 -106 list append;
#X obj 333 -138 t l;
#X obj 246 -138 list prepend;
#X obj 60 -270 loadbang;
#X obj 36 24 square 4;
#X obj 315 -262 % 200;
#X obj 315 -240 == 199;
#X obj 315 -218 sel 1;
#X obj 315 -293 r FRAME_POS;
#X obj 200 -293 r CLEAR_SIMULATOR;
#X obj 123 -162 trigger bang anything;
#X obj 200 -192 trigger bang bang;
#X obj 36 -69 pix_set 200 200;
#X connect 0 0 17 0;
#X connect 1 0 17 0;
#X connect 2 0 15 0;
#X connect 3 0 4 0;
#X connect 4 0 9 0;
#X connect 5 0 17 1;
#X connect 6 0 7 1;
#X connect 7 0 6 0;
#X connect 7 0 5 1;
#X connect 8 0 3 0;
#X connect 8 0 1 0;
#X connect 10 0 11 0;
#X connect 11 0 12 0;
#X connect 12 0 7 1;
#X connect 13 0 10 0;
#X connect 14 0 16 0;
#X connect 15 0 5 0;
#X connect 15 1 7 0;
#X connect 16 0 17 1;
#X connect 16 1 7 1;
#X connect 17 0 4 0;
#X restore 97 524 pd stitch_simulator;
#X obj 99 301 adc~;
#X obj 331 157 loadbang;
#X msg 331 207 0;
#X obj 331 182 del 1100;
#X obj 98 378 dac~;
#N canvas 1830 421 368 258 fft 0;
#X obj 105 23 *~;
#X obj 132 23 *~;
#X obj 105 -54 inlet~;
#X obj 105 54 sqrt~;
#X obj 105 158 tabwrite~ spectrum;
#X obj 47 158 outlet~;
#X obj 172 132 s SPECTRUM_FRAME_RATE;
#X obj 105 -6 rfft~;
#X obj 16 -53 block~ 4095;
#X obj 172 36 metro 100;
#X obj 172 -54 loadbang;
#X obj 214 -8 bng 15 250 50 0 empty empty empty 17 7 0 10 -262144 -1
-1;
#X obj 172 60 trigger b b;
#X obj 172 103 spigot;
#X obj 260 -54 r CONTROL;
#X obj 260 34 select 0 1;
#X msg 260 60 0;
#X msg 288 60 1;
#X connect 0 0 3 0;
#X connect 1 0 3 0;
#X connect 2 0 7 0;
#X connect 2 0 5 0;
#X connect 3 0 4 0;
#X connect 7 0 0 0;
#X connect 7 0 0 1;
#X connect 7 1 1 0;
#X connect 7 1 1 1;
#X connect 9 0 12 0;
#X connect 10 0 9 0;
#X connect 11 0 9 0;
#X connect 12 0 13 0;
#X connect 12 1 4 0;
#X connect 13 0 6 0;
#X connect 14 0 15 0;
#X connect 15 0 16 0;
#X connect 15 1 17 0;
#X connect 16 0 13 1;
#X connect 17 0 13 1;
#X restore 98 340 pd fft;
#X floatatom 128 262 5 0 200 1 BACKGROUND - BACKGROUND, f 5;
#X obj -106 227 comport 0 38400;
#N canvas 457 294 250 326 udp 0;
#X obj 52 72 udpreceive 9997;
#N canvas 529 53 494 344 META 0;
#X text 12 155 HELP_PATCH_AUTHORS "pd meta" information added by Jonathan
Wilkes for Pd version 0.42.;
#X text 12 25 LICENSE GPL v2 or later;
#X text 12 135 AUTHOR Martin Peach;
#X text 12 5 KEYWORDS control network;
#X text 12 45 DESCRIPTION receive datagrams over a udp connection and
outputs them as raw bytes;
#X text 12 75 INLET_0 status port;
#X text 12 95 OUTLET_0 anything;
#X text 12 115 OUTLET_1 received total from multicast;
#X restore 547 448 pd META;
#X msg 37 200 255;
#X obj 37 103 l;
#X obj 37 48 inlet;
#X obj 37 235 outlet;
#X obj 100 195 ascii2int;
#X obj 100 149 drip;
#X obj 100 172 trigger f b;
#X obj 37 127 trigger b l;
#X connect 0 0 3 1;
#X connect 2 0 5 0;
#X connect 3 0 9 0;
#X connect 4 0 3 0;
#X connect 6 0 5 0;
#X connect 7 0 8 0;
#X connect 8 0 6 0;
#X connect 8 1 6 1;
#X connect 9 0 2 0;
#X connect 9 1 7 0;
#X restore 398 394 pd udp;
#X obj 398 419 s KNITTING;
#X obj 23 324 s SEND_OUT;
#X obj -106 273 trigger bang bang bang;
#X obj 398 368 r SEND_OUT;
#X obj 104 258 tgl 20 0 BACKGROUND_IO empty empty 25 15 0 15 -159808
-1 -1 0 1;
#X obj -110 447 r incomingDatas;
#X obj -110 474 unpack f f;
#X floatatom -53 499 5 0 0 0 - - -, f 5;
#N canvas 799 131 450 300 IYAB_driver 1;
#X obj 40 21 inlet;
#X text 186 176 clear;
#X obj 133 207 t l;
#X obj 104 176 list prepend;
#X obj 78 101 t b b;
#X text 76 176 add;
#X msg 137 25 10;
#X obj 48 225 list prepend;
#X obj 48 276 outlet;
#X msg 159 62 13;
#X obj 78 70 route 13;
#X connect 0 0 10 0;
#X connect 2 0 3 1;
#X connect 3 0 2 0;
#X connect 3 0 7 1;
#X connect 4 0 3 1;
#X connect 4 1 7 0;
#X connect 6 0 10 1;
#X connect 7 0 8 0;
#X connect 9 0 10 1;
#X connect 10 0 4 0;
#X connect 10 1 3 0;
#X restore -151 374 pd IYAB_driver;
#X obj -151 399 s incomingDatas;
#X floatatom -110 501 5 0 0 0 - - -, f 5;
#X text 363 208 REC_OFF;
#X connect 0 0 2 0;
#X connect 1 0 2 0;
#X connect 3 0 0 0;
#X connect 4 0 1 0;
#X connect 9 0 8 0;
#X connect 9 0 27 0;
#X connect 10 0 7 0;
#X connect 11 0 2 0;
#X connect 12 0 45 0;
#X connect 13 0 26 0;
#X connect 14 0 41 0;
#X connect 15 0 41 0;
#X connect 16 0 41 0;
#X connect 17 0 41 0;
#X connect 18 0 19 0;
#X connect 19 0 16 0;
#X connect 19 1 14 0;
#X connect 20 0 15 0;
#X connect 21 0 22 0;
#X connect 22 0 16 0;
#X connect 23 0 24 0;
#X connect 24 0 2 0;
#X connect 27 0 6 0;
#X connect 29 0 32 0;
#X connect 31 0 28 0;
#X connect 32 0 30 0;
#X connect 34 0 39 0;
#X connect 34 1 39 0;
#X connect 35 0 37 0;
#X connect 36 0 2 0;
#X connect 37 0 36 0;
#X connect 39 0 38 0;
#X connect 39 0 38 1;
#X connect 41 0 12 0;
#X connect 41 0 51 0;
#X connect 42 0 43 0;
#X connect 45 0 13 0;
#X connect 45 1 25 0;
#X connect 45 2 23 0;
#X connect 46 0 42 0;
#X connect 48 0 49 0;
#X connect 49 0 53 0;
#X connect 49 1 50 0;
#X connect 51 0 52 0;
#X coords 0 -1 1 1 155 280 2 100 10;
#X restore -79 -17655 pd controls;
#N canvas 71 178 1153 478 (subpatch) 0;
#X array spectrum 200 float 1 black black;
#A 0 14.4952 7.41211 9.66065 7.20006 6.40049 9.80894 3.23007 5.75344
3.53766 5.86496 2.37163 3.67622 5.39002 4.41315 2.98011 1.5986 1.44669
1.49431 0.720243 0.285366 1.81606 2.11943 2.3416 2.64843 2.81469 2.55874
4.72614 3.39855 4.58217 2.15086 2.57012 1.55789 0.33344 4.05932 1.63452
7.344 2.71764 0.935073 0.239271 0.935882 2.79739 0.799808 1.08455 0.513867
2.51909 1.69396 1.55534 1.44599 1.87579 0.518895 0.439925 2.08708 1.17591
0.986017 0.999887 2.19713 0.291323 1.89762 0.914854 0.632576 0.590768
0.302863 1.271 0.683385 0.944622 2.68225 0.8122 2.59745 2.2427 1.3377
0.29585 1.39669 0.979705 0.607738 1.40612 1.21423 0.481211 1.16498
0.279831 0.411698 0.792401 0.477291 0.305686 0.47144 0.627709 0.581667
0.411525 0.116517 0.415375 1.04567 1.48796 0.420605 0.249798 0.798306
1.70466 1.70635 0.472261 0.219924 1.14728 0.643335 0.970865 0.710926
0.825959 1.44581 0.415329 0.360445 0.435288 0.77024 0.685013 0.623031
1.28016 0.886215 0.253758 0.396145 1.1774 0.793468 0.502056 0.0859047
1.29081 0.955834 1.01456 1.35551 1.11677 0.549179 1.27966 1.68968 0.10132
1.66979 0.615959 0.560246 1.15933 0.649681 0.294291 0.642743 0.55019
1.28736 0.40904 0.660519 0.387252 1.5201 0.419262 0.645992 0.631274
0.191092 1.50341 0.483221 0.613586 1.10472 0.716482 1.09839 0.966926
0.618476 0.899715 1.30545 0.990949 0.529931 0.733023 0.384936 0.971139
1.47184 0.621864 0.547571 0.337227 1.0649 0.396782 0.517621 0.595385
0.982716 1.03584 0.103863 0.487275 0.956616 0.960857 1.77479 1.82349
0.701436 0.59995 1.22619 0.690741 1.316 0.839975 0.590574 1.0327 0.662273
0.355144 0.348837 0.178891 0.401107 0.375739 0.54389 0.510286 0.496012
0.724744 0.497026 1.07977 0.384741 0.739419 0.583181 0.7103 1.7105
;
#X coords 0 100 199 0 200 150 1;
#X restore 81 -17525 graph;
