#N canvas 142 428 623 327 10;
#N canvas 0 22 450 300 (subpatch) 0;
#X array knit 200 float 0;
#X coords 0 1 199 0 200 150 1 0 0;
#X restore 315 -17409 graph;
#X obj 290 -17406 vsl 20 145 0 150 0 1 SEUIL empty empty 0 -9 0 10
-203904 -1 -1 300 1;
#N canvas 246 173 639 490 controls 0;
#X msg 264 278 2;
#X msg 264 371 3;
#X obj 372 412 s CONTROL;
#X obj 106 258 bng 20 250 50 0 empty empty REWIND 25 15 0 15 -4032
-1 -1;
#X obj 105 351 bng 20 250 50 0 empty empty PLAY_MODE 25 15 0 15 -258113
-1 -1;
#X floatatom 106 317 5 0 0 1 FRAME_POS FRAME_POS -;
#X floatatom 105 298 5 0 0 1 FRAME_RATE - REC_FRAME_RATE;
#N canvas 710 520 267 201 gemwin 0;
#X obj 25 14 inlet;
#X msg 70 91 destroy \, reset;
#X msg 25 69 create \, 1 \, color 0.5 0.5 0.5;
#X obj 25 133 gemwin;
#X obj 25 40 select 1;
#X connect 0 0 4 0;
#X connect 1 0 3 0;
#X connect 2 0 3 0;
#X connect 4 0 2 0;
#X connect 4 1 1 0;
#X restore 236 230 pd gemwin;
#X msg 32 285 \; pd dsp 1;
#X obj 42 239 loadbang;
#X obj 106 210 tgl 20 0 empty empty SIMULATOR 25 15 0 15 -203904 -1
-1 0 1;
#X obj 106 234 tgl 20 0 empty empty REC 25 15 0 15 -260097 -1 -1 0
1;
#X msg 42 321 200;
#X obj -125 356 sel 64;
#X obj -125 379 trigger bang bang;
#X obj -125 403 delay 1200;
#X msg -97 271 close;
#X msg -155 150 devices;
#X msg -125 250 open 7;
#X obj -125 452 s NEXT_ROW;
#X obj -125 333 comport 0 38400;
#X obj -110 307 r KNITTING;
#X obj 106 165 tgl 20 0 empty empty PORT_ON_OFF 25 15 0 15 -257985
-1 -1 0 1;
#X obj -125 185 select 1 0;
#X obj 107 114 bng 20 250 50 0 empty empty CHECK_DEVICES 25 15 0 15
-257985 -1 -1;
#X obj 106 139 nbx 3 20 -1e+37 1e+37 0 0 empty empty PORT 60 15 0 15
-257985 -1 -1 7 256;
#X msg -34 218 set open \$1;
#X obj 105 375 bng 20 250 50 0 empty empty NEXT 25 15 0 15 -4160 -1
-1;
#X msg 264 395 4;
#N canvas 954 369 178 213 bip 0;
#X obj 24 16 inlet;
#X obj 24 133 osc~;
#X msg 24 95 0;
#X msg 87 95 800;
#X obj 24 65 delay 100;
#X obj 24 39 trigger b b;
#X obj 24 159 throw~ out;
#X connect 0 0 5 0;
#X connect 1 0 6 0;
#X connect 2 0 1 0;
#X connect 3 0 1 0;
#X connect 4 0 2 0;
#X connect 5 0 4 0;
#X connect 5 1 3 0;
#X restore -26 403 pd bip;
#N canvas 660 562 151 205 bip 0;
#X obj 34 26 inlet;
#X obj 34 143 osc~;
#X msg 34 105 0;
#X obj 34 75 delay 100;
#X obj 34 49 trigger b b;
#X msg 97 105 440;
#X obj 34 169 throw~ out;
#X connect 0 0 4 0;
#X connect 1 0 6 0;
#X connect 2 0 1 0;
#X connect 3 0 2 0;
#X connect 4 0 3 0;
#X connect 4 1 5 0;
#X connect 5 0 1 0;
#X restore -112 428 pd bip;
#X obj -15 341 bng 15 250 50 0 empty empty empty 17 7 0 10 -262144
-1 -1;
#X connect 0 0 2 0;
#X connect 1 0 2 0;
#X connect 3 0 0 0;
#X connect 4 0 1 0;
#X connect 9 0 8 0;
#X connect 9 0 12 0;
#X connect 10 0 7 0;
#X connect 11 0 2 0;
#X connect 12 0 6 0;
#X connect 13 0 14 0;
#X connect 14 0 15 0;
#X connect 14 1 29 0;
#X connect 15 0 19 0;
#X connect 15 0 30 0;
#X connect 16 0 20 0;
#X connect 17 0 20 0;
#X connect 18 0 20 0;
#X connect 20 0 13 0;
#X connect 21 0 20 0;
#X connect 22 0 23 0;
#X connect 23 0 18 0;
#X connect 23 1 16 0;
#X connect 24 0 17 0;
#X connect 25 0 26 0;
#X connect 26 0 18 0;
#X connect 27 0 28 0;
#X connect 28 0 2 0;
#X connect 31 0 14 0;
#X coords 0 -1 1 1 155 300 2 100 100;
#X restore -75 -17558 pd controls;
#N canvas 71 178 1153 478 (subpatch) 0;
#X array spectrum 200 float 1;
#A 0 1.38661 2.81387 1.44838 0.871371 1.04731 3.81185 1.87663 0.141197
0.985408 9.47435 0.755966 1.50945 0.918027 2.00009 2.76013 0.815174
0.459738 2.61686 4.7153 1.09206 0.182021 0.614317 0.836216 5.71534
0.423087 0.31997 1.17412 6.01115 1.93496 0.345279 0.172284 0.184142
0.463468 0.561343 1.65681 1.32589 4.0311 13.2484 2.57828 1.74496 1.85577
3.73292 0.566337 0.562523 0.841615 2.43557 3.29036 1.02904 0.764507
0.666598 0.386577 0.395691 0.342488 0.470609 1.85247 0.40678 0.311091
0.453323 0.406496 0.4643 0.431795 0.408002 0.449419 0.560763 0.119926
0.277125 0.414288 0.58775 0.794234 0.504319 0.81307 1.37107 4.63941
3.873 1.22233 0.505916 0.354015 0.299787 0.198955 0.103183 0.356459
0.332667 0.225987 0.160855 0.0822866 0.121176 0.0592478 0.0344502 0.0933909
0.208162 0.281289 0.515806 0.0538671 0.0835028 0.0546023 0.111125 0.111765
0.282974 0.132281 0.0675955 0.192452 0.0523882 0.0606191 0.0991212
0.17568 0.132668 0.292835 0.138233 1.10791 0.328151 0.561913 0.196116
0.0801491 0.075144 0.0731709 0.0985808 0.0890399 0.390721 0.440043
0.198093 0.122879 0.455517 0.528531 0.145272 0.639513 0.413812 0.568741
0.645792 0.862139 0.130558 0.0761445 0.150778 0.390899 0.621178 0.413709
0.969393 0.770579 0.223139 0.0645703 0.296035 0.0416859 0.150186 0.192603
0.839841 0.464755 1.03237 0.271998 0.189452 0.131209 0.220546 0.513613
0.0846521 0.144948 0.181505 0.0697179 0.147548 0.0742283 0.044212 0.0728744
0.164163 0.288083 0.183215 0.21485 0.471245 0.365015 0.232701 0.216078
0.122511 0.100201 0.166361 0.284506 0.182171 0.172141 0.267066 0.289698
0.418548 0.132648 0.148836 0.637634 0.342959 0.605987 0.0700873 0.378873
0.287632 0.146207 0.0607005 0.196815 0.401099 0.3071 0.171841 0.440349
0.440722 0.250716 0.160304 0.141631 0.320136 0.143142 0.260422 0.151602
0.199113;
#X coords 0 100 199 0 200 150 1 0 0;
#X restore 85 -17408 graph;
#N canvas 777 111 212 306 knitHack_soundEngine 0;
#N canvas 1003 196 334 398 stitch_selector 0;
#X obj -4 86 until;
#X obj -4 124 f;
#X obj 28 124 + 1;
#X msg 101 86 0;
#X msg -4 39 200;
#X obj -4 201 i;
#X obj -4 224 >= 40;
#X obj -4 178 tabread spectrum;
#X obj -4 5 inlet;
#X obj -4 62 trigger float bang;
#X obj 84 5 r SEUIL;
#X obj 236 206 f;
#X obj 264 206 + 1;
#X obj 294 206 % 4;
#X obj 236 230 sel 0;
#X msg 236 255 1;
#X msg 266 255 0;
#X obj -4 154 trigger float float float;
#X obj 143 290 pack float float;
#X obj -4 247 sel 1;
#X msg -4 336 \; knit \$1 1;
#X msg 143 336 \; knit \$1 \$2;
#X obj -4 283 float;
#X obj 143 178 trigger float bang;
#X connect 0 0 1 0;
#X connect 1 0 2 0;
#X connect 1 0 17 0;
#X connect 2 0 1 1;
#X connect 3 0 1 1;
#X connect 4 0 9 0;
#X connect 5 0 6 0;
#X connect 6 0 19 0;
#X connect 7 0 5 0;
#X connect 8 0 4 0;
#X connect 9 0 0 0;
#X connect 9 1 3 0;
#X connect 10 0 6 1;
#X connect 11 0 12 0;
#X connect 11 0 14 0;
#X connect 12 0 13 0;
#X connect 13 0 11 1;
#X connect 14 0 15 0;
#X connect 14 1 16 0;
#X connect 15 0 18 1;
#X connect 16 0 18 1;
#X connect 17 0 7 0;
#X connect 17 1 22 1;
#X connect 17 2 23 0;
#X connect 18 0 21 0;
#X connect 19 0 22 0;
#X connect 22 0 20 0;
#X connect 23 0 18 0;
#X connect 23 1 11 0;
#X restore 29 -16925 pd stitch_selector;
#N canvas 170 126 398 518 stitch_recorder 0;
#X obj 239 7 until;
#X obj 239 37 f;
#X obj 267 37 + 1;
#X msg 344 7 0;
#X msg 239 -42 200;
#X obj 182 93 tabread knit;
#X obj 182 117 list prepend;
#X obj 133 141 list;
#X obj 182 141 trigger list;
#X obj 133 214 outlet;
#X obj 152 177 s SIMULATOR;
#X msg 52 -125 0;
#X msg 75 -125 1;
#X obj 52 -235 r CONTROL;
#X obj 239 -19 trigger float bang;
#X obj 133 -92 metro 200;
#X obj 65 113 + 1;
#X obj 133 -64 trigger bang bang bang bang;
#X obj 133 -235 r REC_FRAME_RATE;
#X obj 25 214 s FRAME_POS;
#X obj 52 -149 select 0 1 2;
#X obj 42 163 s FRAME_POS;
#X obj 25 113 float;
#X msg 52 83 0;
#X obj 25 53 t b b;
#X obj 133 -120 delay 1000;
#X obj 133 -149 trigger bang float;
#X connect 0 0 1 0;
#X connect 1 0 2 0;
#X connect 1 0 5 0;
#X connect 2 0 1 1;
#X connect 3 0 1 1;
#X connect 4 0 14 0;
#X connect 5 0 6 0;
#X connect 6 0 7 1;
#X connect 6 0 8 0;
#X connect 7 0 9 0;
#X connect 7 0 10 0;
#X connect 8 0 6 1;
#X connect 11 0 15 0;
#X connect 12 0 15 0;
#X connect 13 0 20 0;
#X connect 14 0 0 0;
#X connect 14 1 3 0;
#X connect 15 0 17 0;
#X connect 16 0 22 1;
#X connect 17 0 7 0;
#X connect 17 1 6 1;
#X connect 17 2 4 0;
#X connect 17 3 22 0;
#X connect 18 0 26 0;
#X connect 20 0 11 0;
#X connect 20 1 12 0;
#X connect 20 2 24 0;
#X connect 22 0 16 0;
#X connect 22 0 19 0;
#X connect 23 0 22 1;
#X connect 24 0 22 0;
#X connect 24 1 23 0;
#X connect 25 0 15 0;
#X connect 26 0 25 0;
#X connect 26 1 15 1;
#X restore 28 -16900 pd stitch_recorder;
#X obj 31 -17070 adc~;
#X obj 28 -16852 s KNITTING;
#N canvas 704 194 368 246 fft 0;
#X obj 105 23 *~;
#X obj 132 23 *~;
#X obj 105 -54 inlet~;
#X obj 105 54 sqrt~;
#X obj 105 158 tabwrite~ spectrum;
#X obj 47 158 outlet~;
#X obj 172 132 s SPECTRUM_FRAME_RATE;
#X obj 105 -6 rfft~;
#X obj 16 -53 block~ 4095;
#X obj 172 36 metro 100;
#X obj 172 -54 loadbang;
#X obj 214 -8 bng 15 250 50 0 empty empty empty 17 7 0 10 -262144 -1
-1;
#X obj 172 60 trigger b b;
#X obj 172 103 spigot;
#X obj 260 -54 r CONTROL;
#X obj 260 34 select 0 1;
#X msg 260 60 0;
#X msg 288 60 1;
#X connect 0 0 3 0;
#X connect 1 0 3 0;
#X connect 2 0 7 0;
#X connect 2 0 5 0;
#X connect 3 0 4 0;
#X connect 7 0 0 0;
#X connect 7 0 0 1;
#X connect 7 1 1 0;
#X connect 7 1 1 1;
#X connect 9 0 12 0;
#X connect 10 0 9 0;
#X connect 11 0 9 0;
#X connect 12 0 13 0;
#X connect 12 1 4 0;
#X connect 13 0 6 0;
#X connect 14 0 15 0;
#X connect 15 0 16 0;
#X connect 15 1 17 0;
#X connect 16 0 13 1;
#X connect 17 0 13 1;
#X restore 29 -17021 pd fft;
#X obj 29 -16948 r SPECTRUM_FRAME_RATE;
#N canvas 843 130 352 400 stitch_player 0;
#X obj 24 270 qlist;
#X msg 169 147 rewind;
#X msg 250 201 next;
#X msg 129 96 clear;
#X msg 189 174 read ./pattern_00.txt;
#X obj 24 16 inlet;
#X obj 24 114 list append 1 2;
#X msg 24 90 add;
#X obj 24 64 t b a;
#X obj 24 137 list trim;
#X obj 24 351 outlet;
#X msg 24 322 255;
#X obj 24 295 trigger b a;
#X msg 149 120 write ./pattern_00.txt;
#X obj 250 16 r NEXT_ROW;
#X obj 129 64 select 1 0 2 3;
#X obj 129 16 r CONTROL;
#X connect 0 0 12 0;
#X connect 1 0 0 0;
#X connect 2 0 0 0;
#X connect 3 0 0 0;
#X connect 4 0 0 0;
#X connect 5 0 8 0;
#X connect 6 0 9 0;
#X connect 7 0 6 0;
#X connect 8 0 7 0;
#X connect 8 1 6 1;
#X connect 9 0 0 0;
#X connect 11 0 10 0;
#X connect 12 0 11 0;
#X connect 12 1 10 0;
#X connect 13 0 0 0;
#X connect 14 0 2 0;
#X connect 15 0 3 0;
#X connect 15 1 13 0;
#X connect 15 2 1 0;
#X connect 15 3 4 0;
#X connect 16 0 15 0;
#X restore 28 -16876 pd stitch_player;
#N canvas 876 158 357 334 stitch_simulator 0;
#X obj 36 -293 gemhead;
#X msg 63 -137 GREY;
#X obj 123 -293 r SIMULATOR;
#X msg 89 -61 quality 0;
#X obj 36 -23 pix_texture;
#X obj 123 -136 list append;
#X obj 291 -168 t l;
#X obj 204 -168 list prepend;
#X obj 123 -192 trigger bang a;
#X obj 63 -240 loadbang;
#X obj 36 4 square 4;
#X obj 273 -268 % 200;
#X obj 273 -246 == 199;
#X obj 273 -224 sel 1;
#X obj 273 -293 r FRAME_POS;
#X obj 195 -258 sel 2;
#X obj 36 -100 pix_set 200 200;
#X obj 195 -293 r CONTROL;
#X obj 195 -233 t b b;
#X connect 0 0 16 0;
#X connect 1 0 16 0;
#X connect 2 0 8 0;
#X connect 3 0 4 0;
#X connect 4 0 10 0;
#X connect 5 0 16 1;
#X connect 6 0 7 1;
#X connect 7 0 6 0;
#X connect 7 0 5 1;
#X connect 8 0 5 0;
#X connect 8 1 7 0;
#X connect 9 0 3 0;
#X connect 9 0 1 0;
#X connect 11 0 12 0;
#X connect 12 0 13 0;
#X connect 13 0 7 1;
#X connect 14 0 11 0;
#X connect 15 0 18 0;
#X connect 16 0 4 0;
#X connect 17 0 15 0;
#X connect 18 0 16 1;
#X connect 18 1 7 1;
#X restore 28 -16827 pd stitch_simulator;
#X obj 30 -17045 +~;
#X obj 30 -16969 dac~;
#X obj 30 -16997 +~;
#X obj 86 -17014 catch~ out;
#X connect 1 0 6 0;
#X connect 2 0 8 0;
#X connect 2 1 8 1;
#X connect 4 0 10 0;
#X connect 5 0 0 0;
#X connect 6 0 3 0;
#X connect 8 0 4 0;
#X connect 10 0 9 0;
#X connect 10 0 9 1;
#X connect 11 0 10 1;
#X restore -75 -17254 pd knitHack_soundEngine;
