#N canvas 753 330 626 313 10;
#N canvas 0 50 450 300 (subpatch) 0;
#X array knit 200 float 0;
#X coords 0 1 199 0 200 150 1 0 0;
#X restore 411 149 graph;
#X obj 386 152 vsl 20 145 0 50 0 1 SEUIL empty empty 0 -9 0 10 -203904
-1 -1 450 1;
#N canvas 260 255 684 611 controls 0;
#X msg 484 162 2;
#X msg 484 229 3;
#X obj 552 271 s CONTROL;
#X obj 300 120 bng 20 250 50 0 empty empty CLEAR 25 15 0 15 -260097
-260097 -45076;
#X obj 300 142 bng 20 250 50 0 empty empty KNIT 25 15 0 15 -260097
-1 -1;
#X floatatom 300 267 5 0 0 1 FRAME_POS FRAME_POS -;
#X floatatom 300 246 5 0 0 1 FRAME_RATE - REC_FRAME_RATE;
#N canvas 678 468 261 275 gemwin 0;
#X obj 26 21 inlet;
#X obj 26 47 select 1;
#X msg 71 98 0 \, destroy;
#X msg 26 77 reset \, dimen 700 700 \, create \, 1;
#X obj 26 140 gemwin;
#X connect 0 0 1 0;
#X connect 1 0 3 0;
#X connect 1 1 2 0;
#X connect 2 0 4 0;
#X connect 3 0 4 0;
#X restore 486 112 pd gemwin;
#X obj 192 83 loadbang;
#X obj 300 76 tgl 20 0 empty empty SIMULATOR 25 15 0 15 -260097 -1
-1 0 1;
#X obj 300 98 tgl 20 0 empty empty REC 25 15 0 15 -260097 -1 -1 0 1
;
#X obj 95 251 sel 64;
#X obj 95 298 delay 1200;
#X msg 123 174 close;
#X msg 45 37 devices;
#X msg 95 153 open 0;
#X obj 125 202 r KNITTING;
#X obj 300 54 tgl 20 0 empty empty PORT_ON_OFF 25 15 0 15 -260097 -1
-1 0 1;
#X obj 95 87 select 1 0;
#X obj 300 10 bng 20 250 50 0 empty empty CHECK_DEVICES 25 15 0 15
-260097 -1 -1;
#X msg 76 62 set open \$1;
#X obj 300 164 bng 20 250 50 0 empty empty NEXT_ROW 25 15 0 15 -260097
-1 -1;
#X msg 484 254 4;
#N canvas 944 507 178 213 bip 0;
#X obj 24 16 inlet;
#X obj 24 133 osc~;
#X msg 24 95 0;
#X msg 87 95 800;
#X obj 24 65 delay 100;
#X obj 24 39 trigger b b;
#X obj 23 159 outlet~;
#X connect 0 0 5 0;
#X connect 1 0 6 0;
#X connect 2 0 1 0;
#X connect 3 0 1 0;
#X connect 4 0 2 0;
#X connect 5 0 4 0;
#X connect 5 1 3 0;
#X restore 159 324 pd bip;
#N canvas 659 449 151 205 bip 0;
#X obj 34 26 inlet;
#X obj 34 143 osc~;
#X msg 34 105 0;
#X obj 34 75 delay 100;
#X obj 34 49 trigger b b;
#X msg 97 105 440;
#X obj 34 169 outlet~;
#X connect 0 0 4 0;
#X connect 1 0 6 0;
#X connect 2 0 1 0;
#X connect 3 0 2 0;
#X connect 4 0 3 0;
#X connect 4 1 5 0;
#X connect 5 0 1 0;
#X restore 95 323 pd bip;
#X msg 192 150 50;
#N canvas 284 216 460 373 stitch_selector 0;
#X obj 12 95 until;
#X obj 54 126 + 1;
#X msg 117 88 0;
#X msg 12 41 200;
#X obj 12 230 >= 40;
#X obj 12 180 tabread spectrum;
#X obj 12 7 inlet;
#X obj 12 64 trigger float bang;
#X obj 100 7 r SEUIL;
#X obj 264 208 f;
#X obj 264 232 sel 0;
#X obj 12 156 trigger float float float;
#X obj 159 292 pack float float;
#X obj 12 256 sel 1;
#X msg 159 328 \; knit \$1 \$2;
#X obj 12 285 float;
#X obj 159 180 trigger float bang;
#X obj 12 126 float;
#X obj 12 203 int;
#X msg 294 257 1;
#X msg 264 257 0;
#X msg 12 328 \; knit \$1 0;
#X obj 320 207 % 3;
#X obj 292 208 + 1;
#X msg 308 144 0;
#X msg 280 144 1;
#X obj 335 172 r BACKGROUND;
#X obj 280 9 r BACKGROUND_IO;
#X obj 280 118 select 1 0;
#X obj 280 180 t b f;
#X connect 0 0 17 0;
#X connect 1 0 17 1;
#X connect 2 0 17 1;
#X connect 3 0 7 0;
#X connect 4 0 13 0;
#X connect 5 0 18 0;
#X connect 6 0 3 0;
#X connect 7 0 0 0;
#X connect 7 1 2 0;
#X connect 8 0 4 1;
#X connect 9 0 10 0;
#X connect 9 0 23 0;
#X connect 10 0 20 0;
#X connect 10 1 19 0;
#X connect 11 0 5 0;
#X connect 11 1 15 1;
#X connect 11 2 16 0;
#X connect 12 0 14 0;
#X connect 13 0 15 0;
#X connect 15 0 21 0;
#X connect 16 0 12 0;
#X connect 16 1 9 0;
#X connect 17 0 1 0;
#X connect 17 0 11 0;
#X connect 18 0 4 0;
#X connect 19 0 12 1;
#X connect 20 0 12 1;
#X connect 22 0 9 1;
#X connect 23 0 22 0;
#X connect 24 0 29 0;
#X connect 25 0 29 0;
#X connect 26 0 22 1;
#X connect 27 0 28 0;
#X connect 28 0 25 0;
#X connect 28 1 24 0;
#X connect 29 0 9 0;
#X connect 29 1 23 1;
#X restore 299 467 pd stitch_selector;
#N canvas 1050 457 370 433 stitch_recorder 0;
#X obj 226 218 until;
#X obj 274 248 + 1;
#X msg 331 216 0;
#X msg 226 165 200;
#X obj 146 289 tabread knit;
#X obj 146 313 list prepend;
#X obj 97 337 list;
#X obj 146 337 trigger list;
#X obj 97 389 outlet;
#X msg 16 80 0;
#X msg 44 80 1;
#X obj 16 10 r CONTROL;
#X obj 226 188 trigger float bang;
#X obj 97 113 metro 200;
#X obj 97 10 r REC_FRAME_RATE;
#X obj 97 85 delay 1000;
#X obj 97 56 trigger bang float;
#X obj 16 56 select 0 1;
#X obj 226 248 float;
#X obj 97 141 trigger bang bang bang;
#X connect 0 0 18 0;
#X connect 1 0 18 1;
#X connect 2 0 18 1;
#X connect 3 0 12 0;
#X connect 4 0 5 0;
#X connect 5 0 6 1;
#X connect 5 0 7 0;
#X connect 6 0 8 0;
#X connect 7 0 5 1;
#X connect 9 0 13 0;
#X connect 10 0 13 0;
#X connect 11 0 17 0;
#X connect 12 0 0 0;
#X connect 12 1 2 0;
#X connect 13 0 19 0;
#X connect 14 0 16 0;
#X connect 15 0 13 0;
#X connect 16 0 15 0;
#X connect 16 1 13 1;
#X connect 17 0 9 0;
#X connect 17 1 10 0;
#X connect 18 0 1 0;
#X connect 18 0 4 0;
#X connect 19 0 6 0;
#X connect 19 1 5 1;
#X connect 19 2 3 0;
#X restore 298 492 pd stitch_recorder;
#X obj 298 540 s KNITTING;
#X obj 299 444 r SPECTRUM_FRAME_RATE;
#N canvas 1050 232 474 489 stitch_player 0;
#X obj 26 342 qlist;
#X msg 311 114 next;
#X obj 26 19 inlet;
#X obj 26 151 list trim;
#X obj 26 433 outlet;
#X obj 238 19 r CONTROL;
#X obj 102 433 s SIMULATOR;
#X obj 278 391 + 1;
#X obj 238 433 s FRAME_POS;
#X obj 238 391 float;
#X msg 260 361 0;
#X obj 26 66 trigger bang anything bang;
#X obj 26 128 list append 1 2;
#X msg 26 105 add 255;
#X obj 41 374 route 255;
#X obj 284 91 t b b;
#X msg 261 220 rewind;
#X msg 326 317 clear;
#X obj 238 66 select 2 3 4;
#X obj 349 294 s CLEAR_SIMULATOR;
#X obj 319 177 s CLEAR_SIMULATOR;
#X msg 290 198 write pattern.txt;
#X obj 332 19 loadbang;
#X msg 332 46 read pattern.txt;
#X msg 282 338 write pattern.txt;
#X msg 304 296 add 0;
#X obj 238 269 trigger b b b b b b;
#X obj 261 153 trigger b b b b;
#X obj 122 404 print KNIT;
#X connect 0 0 4 0;
#X connect 0 0 14 0;
#X connect 1 0 0 0;
#X connect 2 0 11 0;
#X connect 3 0 0 0;
#X connect 5 0 18 0;
#X connect 7 0 9 1;
#X connect 9 0 7 0;
#X connect 9 0 8 0;
#X connect 10 0 9 1;
#X connect 11 0 13 0;
#X connect 11 1 6 0;
#X connect 11 1 12 1;
#X connect 11 2 9 0;
#X connect 12 0 3 0;
#X connect 13 0 12 0;
#X connect 14 0 6 0;
#X connect 14 0 28 0;
#X connect 15 0 9 0;
#X connect 15 1 1 0;
#X connect 16 0 0 0;
#X connect 17 0 0 0;
#X connect 18 0 26 0;
#X connect 18 1 27 0;
#X connect 18 2 15 0;
#X connect 21 0 0 0;
#X connect 22 0 23 0;
#X connect 23 0 0 0;
#X connect 24 0 0 0;
#X connect 25 0 0 0;
#X connect 26 0 9 0;
#X connect 26 1 10 0;
#X connect 26 2 24 0;
#X connect 26 3 25 0;
#X connect 26 4 17 0;
#X connect 26 5 19 0;
#X connect 27 0 16 0;
#X connect 27 1 21 0;
#X connect 27 2 20 0;
#X connect 27 3 10 0;
#X restore 298 516 pd stitch_player;
#N canvas 302 178 410 371 stitch_simulator 0;
#X obj 33 9 gemhead;
#X msg 75 196 GREY;
#X obj 120 9 r SIMULATOR;
#X msg 57 265 quality 0;
#X obj 33 299 pix_texture;
#X obj 120 196 list append;
#X obj 330 164 t l;
#X obj 243 164 list prepend;
#X obj 57 32 loadbang;
#X obj 33 326 square 4;
#X obj 312 40 % 200;
#X obj 312 62 == 199;
#X obj 312 84 sel 1;
#X obj 312 9 r FRAME_POS;
#X obj 197 9 r CLEAR_SIMULATOR;
#X obj 120 140 trigger bang anything;
#X obj 197 110 trigger bang bang;
#X obj 33 233 pix_set 200 200;
#X connect 0 0 17 0;
#X connect 1 0 17 0;
#X connect 2 0 15 0;
#X connect 3 0 4 0;
#X connect 4 0 9 0;
#X connect 5 0 17 1;
#X connect 6 0 7 1;
#X connect 7 0 6 0;
#X connect 7 0 5 1;
#X connect 8 0 3 0;
#X connect 8 0 1 0;
#X connect 10 0 11 0;
#X connect 11 0 12 0;
#X connect 12 0 7 1;
#X connect 13 0 10 0;
#X connect 14 0 16 0;
#X connect 15 0 5 0;
#X connect 15 1 7 0;
#X connect 16 0 17 1;
#X connect 16 1 7 1;
#X connect 17 0 4 0;
#X restore 298 565 pd stitch_simulator;
#X obj 258 330 adc~;
#X obj 552 158 loadbang;
#X msg 552 208 0;
#X obj 552 183 del 1100;
#X obj 257 407 dac~;
#N canvas 536 701 368 258 fft 0;
#X obj 103 96 *~;
#X obj 130 96 *~;
#X obj 103 19 inlet~;
#X obj 103 127 sqrt~;
#X obj 103 231 tabwrite~ spectrum;
#X obj 45 231 outlet~;
#X obj 170 205 s SPECTRUM_FRAME_RATE;
#X obj 103 67 rfft~;
#X obj 170 109 metro 100;
#X obj 170 19 loadbang;
#X obj 170 133 trigger b b;
#X obj 170 176 spigot;
#X obj 258 19 r CONTROL;
#X obj 258 107 select 0 1;
#X msg 258 133 0;
#X msg 286 133 1;
#X obj 8 19 block~ 4096;
#X connect 0 0 3 0;
#X connect 1 0 3 0;
#X connect 2 0 7 0;
#X connect 2 0 5 0;
#X connect 3 0 4 0;
#X connect 7 0 0 0;
#X connect 7 0 0 1;
#X connect 7 1 1 0;
#X connect 7 1 1 1;
#X connect 8 0 10 0;
#X connect 9 0 8 0;
#X connect 10 0 11 0;
#X connect 10 1 4 0;
#X connect 11 0 6 0;
#X connect 12 0 13 0;
#X connect 13 0 14 0;
#X connect 13 1 15 0;
#X connect 14 0 11 1;
#X connect 15 0 11 1;
#X restore 257 369 pd fft;
#X floatatom 300 225 5 0 200 1 BACKGROUND - BACKGROUND;
#X obj 95 228 comport 0 38400;
#X obj 95 274 trigger bang bang bang;
#X obj 300 186 tgl 20 0 BACKGROUND_IO empty BACKGROUND 25 15 0 15 -260097
-1 -1 0 1;
#X obj 91 448 r incomingDatas;
#X obj 91 495 unpack f f;
#X floatatom 148 520 5 0 0 0 - - -;
#N canvas 805 137 450 300 IYAB_driver 0;
#X obj 167 20 inlet;
#X obj 251 206 t l, f 4;
#X obj 220 179 list prepend;
#X obj 167 103 t b b;
#X obj 139 227 list prepend;
#X obj 139 270 outlet;
#X obj 167 72 route 13;
#X connect 0 0 6 0;
#X connect 1 0 2 1;
#X connect 2 0 1 0;
#X connect 2 0 4 1;
#X connect 3 0 2 1;
#X connect 3 1 4 0;
#X connect 4 0 5 0;
#X connect 6 0 3 0;
#X connect 6 1 2 0;
#X restore -8 298 pd IYAB_driver;
#X obj -8 323 s incomingDatas;
#X floatatom 91 522 5 0 0 0 - - -;
#X text 584 209 REC_OFF;
#X obj 101 472 print;
#X obj 300 32 hradio 20 1 0 8 foo11_snd foo11_rcv empty 160 12 0 20
-162280 -4034 -45076 0;
#X connect 0 0 2 0;
#X connect 1 0 2 0;
#X connect 3 0 0 0;
#X connect 4 0 1 0;
#X connect 8 0 25 0;
#X connect 9 0 7 0;
#X connect 10 0 2 0;
#X connect 11 0 40 0;
#X connect 12 0 24 0;
#X connect 13 0 39 0;
#X connect 14 0 39 0;
#X connect 15 0 39 0;
#X connect 16 0 39 0;
#X connect 17 0 18 0;
#X connect 18 0 15 0;
#X connect 18 1 13 0;
#X connect 19 0 14 0;
#X connect 20 0 15 0;
#X connect 21 0 22 0;
#X connect 22 0 2 0;
#X connect 23 0 36 1;
#X connect 24 0 36 0;
#X connect 25 0 6 0;
#X connect 27 0 30 0;
#X connect 29 0 26 0;
#X connect 30 0 28 0;
#X connect 32 0 37 0;
#X connect 32 1 37 0;
#X connect 33 0 35 0;
#X connect 34 0 2 0;
#X connect 35 0 34 0;
#X connect 37 0 36 1;
#X connect 37 0 36 0;
#X connect 39 0 11 0;
#X connect 39 0 45 0;
#X connect 40 0 12 0;
#X connect 40 1 23 0;
#X connect 40 2 21 0;
#X connect 42 0 43 0;
#X connect 42 0 49 0;
#X connect 43 0 47 0;
#X connect 43 1 44 0;
#X connect 45 0 46 0;
#X coords 0 -1 1 1 160 280 2 300 10;
#X restore 11 20 pd controls;
#N canvas 71 178 1153 478 (subpatch) 0;
#X array spectrum 200 float 2;
#X coords 0 100 200 0 200 150 1;
#X restore 181 150 graph;
